PathFileType	3	(X/Y/Z)	F:\ViconData\AntennenMessung\Messung1\Session1\ID15.trc
DataRate	CameraRate	NumFrames	NumMarkers	Units	OrigDataRate	OrigDataStartFrame	OrigNumFrames
120.0	120.0	6	70	mm	120.0	1	1342	
Frame#	Time	Ashort			Along			Atop			A4			Bshort			Blong			Btop			B4			Cshort			Clong			Ctop			C4			Dshort			Dlong			Dtop			D4			Eshort			Elong			Etop			E4			Fshort			Flong			Ftop			F4			Gshort			Glong			Gtop			G4			Hshort			Hlong			Htop			H4			I1			I2			I3			I4			I5			WandAshort			WandAlong			WandAtop			WandA4			WandA15			WandBshort			WandB4			WandB5			WandBtop			WandBlong			WandCshort			WandClong			WandCtop			WandC4			WandC5			Acenter			Aantenna			Bcenter			Bantenna			Ccenter			Cantenna			Dcenter			Dantenna			Ecenter			Eantenna			Fcenter			Fantenna			Gcenter			Gantenna			Hcenter			Hantenna			Icenter			Iantenna			
		X1	Y1	Z1	X2	Y2	Z2	X3	Y3	Z3	X4	Y4	Z4	X5	Y5	Z5	X6	Y6	Z6	X7	Y7	Z7	X8	Y8	Z8	X9	Y9	Z9	X10	Y10	Z10	X11	Y11	Z11	X12	Y12	Z12	X13	Y13	Z13	X14	Y14	Z14	X15	Y15	Z15	X16	Y16	Z16	X17	Y17	Z17	X18	Y18	Z18	X19	Y19	Z19	X20	Y20	Z20	X21	Y21	Z21	X22	Y22	Z22	X23	Y23	Z23	X24	Y24	Z24	X25	Y25	Z25	X26	Y26	Z26	X27	Y27	Z27	X28	Y28	Z28	X29	Y29	Z29	X30	Y30	Z30	X31	Y31	Z31	X32	Y32	Z32	X33	Y33	Z33	X34	Y34	Z34	X35	Y35	Z35	X36	Y36	Z36	X37	Y37	Z37	X38	Y38	Z38	X39	Y39	Z39	X40	Y40	Z40	X41	Y41	Z41	X42	Y42	Z42	X43	Y43	Z43	X44	Y44	Z44	X45	Y45	Z45	X46	Y46	Z46	X47	Y47	Z47	X48	Y48	Z48	X49	Y49	Z49	X50	Y50	Z50	X51	Y51	Z51	X52	Y52	Z52	X53	Y53	Z53	X54	Y54	Z54	X55	Y55	Z55	X56	Y56	Z56	X57	Y57	Z57	X58	Y58	Z58	X59	Y59	Z59	X60	Y60	Z60	X61	Y61	Z61	X62	Y62	Z62	X63	Y63	Z63	X64	Y64	Z64	X65	Y65	Z65	X66	Y66	Z66	X67	Y67	Z67	X68	Y68	Z68	X69	Y69	Z69	X70	Y70	Z70	
1	0	-1038.1995	214.59398	-1644.038	-1109.3965	204.25876	-1599.3497	-1063.4344	172.84663	-1625.9745	-1054.1157	262.19724	-1634.8153	-1352.6278	235.28265	1003.8239	-1281.4327	227.44403	1052.4592	-1322.6827	193.92728	1020.9984	-1284.4728	287.91635	1052.7798	813.94153	187.72981	1209.6278	892.18787	178.51459	1179.189	844.5047	145.53093	1198.326	861.20844	292.34698	1168.2786	1115.8169	209.63435	-1401.5261	1056.3762	194.16594	-1460.266	1095.1755	162.4285	-1423.8239	1069.7684	238.92686	-1425.9447	-1204.5048	1685.91	-1563.29	-1129.0903	1688.2799	-1605.9059	-1173.0981	1724.3408	-1581.9601	-1134.0076	1581.0112	-1603.7526	-1239.6788	1699.2902	1119.5424	-1309.3933	1698.9062	1071.9836	-1270.4312	1736.3539	1096.9034	-1245.6152	1592.8766	1110.7183	988.85815	1664.158	1162.2101	957.22589	1700.4503	1183.8921	921.76141	1662.3478	1214.8915	939.78064	1659.3813	1159.9752	999.16699	1668.4146	-1579.3424	1059.0107	1670.2295	-1518.6434	1025.0167	1707.9907	-1551.0941	1059.2782	1672.1479	-1585.3839	-201.79997	1171.6207	-147.20581	-197.05498	1170.8368	-231.27992	-199.09573	1208.45	-184.97942	-166.77477	1171.1833	-182.68279	-247.74812	1172.629	-186.65892																																														-1068.3279	210.2204	-1625.1271	-1073.3898	248.88058	-1624.2505	-1321.3651	231.84062	1025.1802	-1320.0189	270.5824	1029.4535	848.2099	183.69394	1196.2969	851.97345	222.45718	1194.2361	1088.9316	202.63794	-1428.0941	1082.9802	240.96561	-1432.1648	-1171.8119	1686.9373	-1581.7642	-1170.4719	1647.9608	-1581.5602	-1271.0641	1699.1173	1098.1316	-1271.7263	1660.144	1099.417	952.5611	1705.8022	1187.0896	972.55353	1734.009	1169.0431	1026.6101	1669.2468	-1551.5068	1028.2129	1630.282	-1551.922	-199.68576	1171.2715	-184.66603	-200.30464	1132.2777	-184.33737
2	0.0083333333	-1038.2008	214.60049	-1644.0244	-1109.3827	204.22469	-1599.3234	-1063.5692	173.08051	-1626.071	-1054.1252	262.20242	-1634.8157	-1352.6698	235.3223	1003.5897	-1281.4075	227.41423	1052.4572	-1322.6484	193.96645	1020.9646	-1284.5485	287.88577	1052.7872	814.05481	187.52797	1209.5255	892.18817	178.52919	1179.2283	844.50012	145.43356	1198.3804	861.12982	292.42398	1168.1083	1115.8119	209.62645	-1401.5283	1056.3693	194.14322	-1460.2603	1095.1345	162.38449	-1423.7738	1069.7341	238.89514	-1425.9213	-1204.515	1685.9091	-1563.2791	-1129.1183	1688.2793	-1605.9077	-1173.0942	1724.3403	-1581.9573	-1134.0175	1581.0116	-1603.7438	-1239.6837	1699.2927	1119.5359	-1309.3896	1698.901	1071.9736	-1270.4371	1736.3599	1096.9011	-1245.6313	1592.9045	1110.7322	988.91779	1664.2317	1162.1852	957.18878	1700.4489	1183.8357	921.75464	1662.3306	1214.9093	939.81494	1659.4119	1159.9619	999.16724	1668.4108	-1579.3295	1059.0134	1670.2335	-1518.6527	1025.0194	1708.0033	-1551.097	1059.2686	1672.15	-1585.3855	-201.80286	1171.5958	-147.20169	-197.05344	1170.8455	-231.27812	-199.1013	1208.4421	-184.961	-166.76793	1171.1906	-182.6888	-247.76195	1172.6371	-186.67099																																														-1068.3608	210.20422	-1625.0844	-1073.3516	248.86992	-1624.0566	-1321.2878	231.83981	1025.1095	-1319.8962	270.58359	1029.3499	848.09937	183.60696	1196.3242	851.755	222.37906	1194.236	1088.9235	202.6227	-1428.0953	1083.0072	240.95093	-1432.2119	-1171.8119	1686.937	-1581.7689	-1170.4757	1647.9604	-1581.5728	-1271.0629	1699.1163	1098.125	-1271.7177	1660.1429	1099.4058	952.44714	1705.8611	1187.0712	972.36432	1734.1093	1169.0062	1026.6122	1669.2466	-1551.5037	1028.2135	1630.2816	-1551.9125	-199.68672	1171.2615	-184.66229	-200.30069	1132.2675	-184.34901
3	0.016666667	-1038.2026	214.61778	-1644.0414	-1109.3904	204.24738	-1599.3733	-1063.4579	172.80081	-1625.989	-1054.1218	262.20026	-1634.8068	-1352.6243	235.31934	1003.6041	-1281.416	227.48662	1052.3885	-1322.6934	193.89058	1021.0405	-1284.5485	287.9342	1052.7767	814.03979	187.7728	1209.5193	892.16901	178.51602	1179.2424	844.52606	145.50775	1198.3267	860.93787	292.10376	1167.3405	1115.8165	209.64192	-1401.5344	1056.4137	194.23595	-1460.2767	1095.1708	162.47528	-1423.7471	1069.7771	238.93506	-1425.9597	-1204.632	1686.0284	-1563.0432	-1129.1077	1688.2706	-1605.9037	-1173.1005	1724.3463	-1581.9617	-1134.0181	1580.996	-1603.723	-1239.6769	1699.2837	1119.5358	-1309.5665	1699.193	1072.0735	-1270.4398	1736.3748	1096.9188	-1245.0955	1593.6293	1106.5819	988.85242	1664.156	1162.2155	957.14813	1700.5231	1183.8452	921.66327	1662.3009	1214.8984	939.75854	1659.4136	1159.9667	999.16187	1668.4109	-1579.3389	1059.0238	1670.234	-1518.6478	1025.0157	1707.9993	-1551.0831	1059.2797	1672.1541	-1585.3835	-201.79794	1171.5928	-147.20599	-197.05888	1170.8342	-231.27879	-199.11092	1208.4451	-184.96619	-166.76614	1171.1764	-182.69484	-247.759	1172.6405	-186.6588																																														-1068.3624	210.2242	-1625.1171	-1073.4291	248.88319	-1624.2164	-1321.2811	231.87164	1025.0773	-1319.8401	270.62674	1029.1963	848.25275	183.71921	1196.261	852.03302	222.47897	1194.1655	1088.9998	202.6871	-1428.0527	1083.1171	241.02171	-1432.1576	-1171.8223	1687.0026	-1581.6628	-1170.4883	1648.0266	-1581.3512	-1271.2087	1699.2427	1098.1222	-1272.0159	1660.2715	1099.3851	952.53607	1705.8132	1186.9916	972.53333	1733.9976	1168.9154	1026.6194	1669.2471	-1551.501	1028.2321	1630.2826	-1551.921	-199.68654	1171.2548	-184.66309	-200.2901	1132.2606	-184.34529
4	0.025	-1038.1997	214.60095	-1644.0342	-1109.415	204.25818	-1599.3551	-1063.5687	173.06407	-1626.0503	-1054.1108	262.20468	-1634.817	-1352.6233	235.32631	1003.6149	-1281.3876	227.43121	1052.4648	-1322.6542	193.89684	1021.0107	-1284.4514	287.79675	1052.7598	813.94257	187.72749	1209.53	892.16571	178.55238	1179.2494	844.54321	145.51801	1198.2505	861.06799	292.15076	1167.8553	1115.9102	210.05896	-1401.7589	1056.3782	194.18216	-1460.2653	1095.0835	162.35805	-1423.7816	1069.7662	238.94456	-1425.951	-1204.6345	1686.0208	-1563.03	-1129.1855	1688.4778	-1606.7201	-1173.1034	1724.3362	-1581.9646	-1134.0195	1581.001	-1603.7329	-1239.6844	1699.2869	1119.5354	-1309.4153	1698.9417	1071.9901	-1270.4482	1736.3811	1096.9125	-1245.5854	1592.847	1110.7161	988.9306	1664.2086	1162.1851	957.16382	1700.4498	1183.8729	921.71539	1662.3876	1214.8799	939.77759	1659.4044	1159.895	999.18323	1668.4286	-1579.3285	1059.0127	1670.2286	-1518.6498	1025.015	1707.9956	-1551.0894	1059.2885	1672.1555	-1585.3755	-201.79054	1171.5907	-147.20767	-197.05437	1170.8364	-231.278	-199.10287	1208.4482	-184.98405	-166.65062	1171.014	-182.66348	-247.77287	1172.6539	-186.67123																																														-1068.3716	210.21899	-1625.1047	-1073.3699	248.88486	-1624.121	-1321.2649	231.85081	1025.1189	-1319.8466	270.59869	1029.3131	848.24774	183.70369	1196.2502	852.00867	222.46878	1194.2196	1088.8151	202.83287	-1428.3871	1082.8837	241.13208	-1432.7449	-1171.9019	1687.0865	-1581.9843	-1170.6445	1648.1068	-1582.0051	-1271.0889	1699.1313	1098.1226	-1271.7593	1660.1577	1099.3887	952.39636	1705.8885	1187.1277	972.32849	1734.149	1169.0985	1026.6097	1669.2535	-1551.5126	1028.2137	1630.2889	-1551.9384	-199.67934	1171.2544	-184.68289	-200.28369	1132.2604	-184.36714
5	0.033333333	-1038.2015	214.62866	-1644.0331	-1109.3972	204.27586	-1599.3601	-1063.5797	173.07294	-1626.0273	-1054.1293	262.19791	-1634.826	-1352.6826	235.28011	1003.6251	-1281.3624	227.39813	1052.4073	-1322.7482	193.88432	1021.0372	-1284.5701	287.96146	1052.7899	814.00171	187.55008	1209.5566	892.2196	178.54315	1179.2063	844.49854	145.50711	1198.2651	861.25665	292.09836	1167.4434	1115.8142	209.63309	-1401.535	1056.3718	194.17616	-1460.2581	1095.1919	162.52701	-1423.8224	1069.739	238.93178	-1425.9343	-1204.6249	1686.0197	-1563.0488	-1129.1067	1688.2552	-1605.8987	-1173.1451	1724.4567	-1581.9557	-1134.0204	1581.0011	-1603.7354	-1239.6672	1699.2686	1119.5298	-1309.3673	1698.8855	1071.9651	-1270.4575	1736.4038	1096.925	-1245.0245	1593.6791	1106.3555	988.93518	1664.2103	1162.2086	957.19702	1700.5013	1183.8455	921.80383	1662.3558	1214.9222	939.79547	1659.3929	1159.9517	999.16943	1668.4272	-1579.3602	1058.9932	1670.2186	-1518.6299	1025.0154	1708.0051	-1551.0896	1059.2876	1672.1588	-1585.3813	-201.79323	1171.6003	-147.22337	-197.05168	1170.8243	-231.27759	-199.11017	1208.4447	-184.97562	-166.67931	1171.0206	-182.65533	-247.75415	1172.6354	-186.66934																																														-1068.3945	210.23819	-1625.0879	-1073.4036	248.90282	-1624.1106	-1321.3196	231.81401	1025.077	-1319.8599	270.5675	1029.2045	848.13025	183.62012	1196.314	851.82489	222.39395	1194.329	1088.9546	202.64871	-1428.0695	1082.9961	240.97673	-1432.1266	-1171.8575	1686.9895	-1581.6412	-1170.5183	1648.0139	-1581.3142	-1271.0592	1699.0959	1098.1072	-1271.6877	1660.1206	1099.3424	952.52142	1705.8474	1187.033	972.45221	1734.0665	1168.9374	1026.6033	1669.2485	-1551.5107	1028.1998	1630.2836	-1551.934	-199.68115	1171.2546	-184.66443	-200.27983	1132.2606	-184.33815
6	0.041666667	-1038.2142	214.55821	-1644.024	-1109.3889	204.25093	-1599.3542	-1063.4519	172.86551	-1625.9536	-1054.1189	262.23566	-1634.8325	-1352.601	235.29962	1003.7808	-1281.386	227.44031	1052.386	-1322.6891	193.89885	1021.0043	-1284.507	287.89209	1052.7943	813.93811	187.50668	1209.5261	892.23358	178.56932	1179.2277	844.54138	145.52377	1198.3472	861.09662	292.21268	1167.7949	1115.8152	209.67134	-1401.5447	1056.3467	194.15442	-1460.2372	1095.1692	162.41762	-1423.8087	1069.7137	238.88669	-1425.9	-1204.6206	1686.0255	-1563.0548	-1129.124	1688.2877	-1605.9235	-1173.1525	1724.4532	-1581.9586	-1134.0219	1581.0178	-1603.7551	-1239.6571	1699.2488	1119.5204	-1309.446	1699.0007	1072.0081	-1270.4406	1736.3638	1096.9189	-1245.0145	1593.6757	1106.5383	988.86591	1664.1559	1162.2137	957.24713	1700.4806	1183.8746	921.88324	1662.3356	1214.9708	939.80316	1659.4268	1159.9037	999.16132	1668.4117	-1579.3344	1058.9945	1670.218	-1518.631	1025.0128	1708.0029	-1551.085	1059.2843	1672.1592	-1585.3676	-201.78831	1171.5997	-147.21602	-197.06038	1170.8346	-231.27217	-199.10779	1208.4513	-184.97928	-166.76822	1171.1924	-182.68594	-247.74817	1172.6326	-186.66534																																														-1068.3347	210.19624	-1625.12	-1073.3917	248.85735	-1624.2568	-1321.318	231.84723	1025.1317	-1319.9183	270.5936	1029.3459	848.09894	183.60725	1196.3068	851.72119	222.38306	1194.2291	1088.9077	202.65047	-1428.101	1082.9434	240.97421	-1432.1896	-1171.8591	1687.0071	-1581.6573	-1170.5133	1648.0316	-1581.3436	-1271.115	1699.1368	1098.1039	-1271.8209	1660.163	1099.3444	952.64191	1705.7711	1187.0294	972.59772	1733.9515	1168.9014	1026.6002	1669.24	-1551.4962	1028.1959	1630.2748	-1551.9097	-199.68146	1171.2587	-184.67293	-200.28293	1132.2648	-184.35176
